<svg width="33" height="32" viewBox="0 0 33 32" fill="none" xmlns="http://www.w3.org/2000/svg">
<path d="M24.7732 2.66675V5.33341M8.77319 2.66675V5.33341" stroke="#FF5982" stroke-width="1.5" stroke-linecap="round" stroke-linejoin="round"/>
<path d="M16.7673 17.3333H16.7793M16.7673 22.6666H16.7793M22.0946 17.3333H22.1066M11.4399 17.3333H11.4519M11.4399 22.6666H11.4519" stroke="#FF5982" stroke-width="2" stroke-linecap="round" stroke-linejoin="round"/>
<path d="M5.43994 10.6667H28.1066" stroke="#FF5982" stroke-width="1.5" stroke-linecap="round" stroke-linejoin="round"/>
<path d="M4.10645 16.3243C4.10645 10.5146 4.10645 7.60971 5.77594 5.80485C7.44543 4 10.1324 4 15.5064 4H18.0398C23.4138 4 26.1008 4 27.7703 5.80485C29.4398 7.60971 29.4398 10.5146 29.4398 16.3243V17.0091C29.4398 22.8188 29.4398 25.7236 27.7703 27.5285C26.1008 29.3333 23.4138 29.3333 18.0398 29.3333H15.5064C10.1324 29.3333 7.44543 29.3333 5.77594 27.5285C4.10645 25.7236 4.10645 22.8188 4.10645 17.0091V16.3243Z" stroke="#FF5982" stroke-width="1.5" stroke-linecap="round" stroke-linejoin="round"/>
<path d="M4.77319 10.6667H28.7732" stroke="#FF5982" stroke-width="1.5" stroke-linecap="round" stroke-linejoin="round"/>
</svg>
