<svg width="215" height="36" viewBox="0 0 215 36" fill="none" xmlns="http://www.w3.org/2000/svg">
<path d="M214.732 4.67965C214.732 2.91934 212.622 2.01758 211.35 3.23415L196.903 17.0484C196.509 17.4258 196.286 17.948 196.286 18.4939L196.286 30.3823C196.286 32.1426 198.396 33.0444 199.668 31.8278L214.115 18.0135C214.509 17.6362 214.732 17.1139 214.732 16.568L214.732 4.67965Z" fill="#FF5982"/>
<path d="M6.21 29.464C5.43 29.464 4.704 29.35 4.032 29.122C3.372 28.906 2.796 28.6 2.304 28.204C1.812 27.82 1.422 27.358 1.134 26.818C0.858 26.29 0.72 25.714 0.72 25.09C0.72 24.862 0.738 24.568 0.774 24.208C0.81 23.848 0.858 23.434 0.918 22.966C0.99 22.498 1.068 22 1.152 21.472L3.528 21.796C3.408 22.552 3.312 23.224 3.24 23.812C3.168 24.4 3.132 24.814 3.132 25.054C3.132 25.51 3.258 25.912 3.51 26.26C3.762 26.608 4.116 26.878 4.572 27.07C5.04 27.274 5.586 27.376 6.21 27.376H11.304C12.084 27.376 12.666 27.178 13.05 26.782C13.434 26.386 13.626 25.81 13.626 25.054V24.37H16.02V25.054C16.02 25.918 15.828 26.68 15.444 27.34C15.06 28 14.514 28.516 13.806 28.888C13.11 29.272 12.276 29.464 11.304 29.464H6.21ZM12.834 25C12.282 25 11.748 24.94 11.232 24.82C10.728 24.7 10.248 24.484 9.792 24.172L11.16 22.444C11.352 22.576 11.52 22.678 11.664 22.75C11.82 22.81 11.988 22.852 12.168 22.876C12.36 22.9 12.582 22.912 12.834 22.912H16.812V25H12.834ZM16.812 25V22.912C16.944 22.912 17.034 23.008 17.082 23.2C17.142 23.38 17.172 23.632 17.172 23.956C17.172 24.268 17.142 24.52 17.082 24.712C17.034 24.904 16.944 25 16.812 25ZM5.904 33.244V31.192H8.316V33.244H5.904ZM8.37 33.244V31.192H10.782V33.244H8.37ZM27.4427 25V22.912H29.3507V25H27.4427ZM16.8047 25V22.912H26.1467L25.0487 23.848V20.536C25.0487 19.888 24.9767 19.384 24.8327 19.024C24.6887 18.652 24.4367 18.394 24.0767 18.25C23.7287 18.094 23.2427 18.016 22.6187 18.016C22.1267 18.016 21.6407 18.052 21.1607 18.124C20.6927 18.184 20.3267 18.268 20.0627 18.376L21.5567 16.972C21.4847 17.248 21.4127 17.596 21.3407 18.016C21.2807 18.436 21.2267 18.886 21.1787 19.366C21.1307 19.834 21.1067 20.296 21.1067 20.752C21.1067 21.172 21.1247 21.61 21.1607 22.066C21.2087 22.522 21.2567 22.924 21.3047 23.272C21.3647 23.62 21.4127 23.86 21.4487 23.992L19.1627 24.622C19.1147 24.454 19.0547 24.178 18.9827 23.794C18.9107 23.41 18.8447 22.954 18.7847 22.426C18.7367 21.898 18.7127 21.34 18.7127 20.752C18.7127 20.152 18.7427 19.576 18.8027 19.024C18.8627 18.46 18.9287 17.956 19.0007 17.512C19.0847 17.056 19.1627 16.69 19.2347 16.414C19.5227 16.306 19.9727 16.198 20.5847 16.09C21.1967 15.982 21.8747 15.928 22.6187 15.928C23.6987 15.928 24.5927 16.078 25.3007 16.378C26.0207 16.678 26.5547 17.164 26.9027 17.836C27.2627 18.508 27.4427 19.414 27.4427 20.554V25H16.8047ZM16.8047 25C16.6607 25 16.5647 24.904 16.5167 24.712C16.4687 24.52 16.4447 24.268 16.4447 23.956C16.4447 23.632 16.4687 23.38 16.5167 23.2C16.5647 23.008 16.6607 22.912 16.8047 22.912V25ZM29.3507 25V22.912C29.4947 22.912 29.5907 23.008 29.6387 23.2C29.6867 23.38 29.7107 23.632 29.7107 23.956C29.7107 24.268 29.6867 24.52 29.6387 24.712C29.5907 24.904 29.4947 25 29.3507 25ZM33.8015 25V22.912H35.6915V25H33.8015ZM31.3895 25V12.274H33.8015V25H31.3895ZM29.3555 25V22.912H31.3895V25H29.3555ZM29.3555 25C29.2115 25 29.1155 24.904 29.0675 24.712C29.0195 24.52 28.9955 24.268 28.9955 23.956C28.9955 23.632 29.0195 23.38 29.0675 23.2C29.1155 23.008 29.2115 22.912 29.3555 22.912V25ZM35.6915 25V22.912C35.8355 22.912 35.9315 23.008 35.9795 23.2C36.0275 23.38 36.0515 23.632 36.0515 23.956C36.0515 24.268 36.0275 24.52 35.9795 24.712C35.9315 24.904 35.8355 25 35.6915 25ZM35.6836 25V22.912H39.4996C40.0156 22.912 40.5136 22.816 40.9936 22.624C41.4736 22.42 41.9116 22.156 42.3076 21.832C42.7156 21.496 43.0696 21.13 43.3696 20.734C43.6816 20.326 43.9216 19.912 44.0896 19.492C44.2696 19.072 44.3596 18.676 44.3596 18.304V17.152L45.5116 19.06C44.8876 18.724 44.2516 18.472 43.6036 18.304C42.9556 18.136 42.3376 18.052 41.7496 18.052C41.1736 18.052 40.5556 18.136 39.8956 18.304C39.2476 18.472 38.6176 18.724 38.0056 19.06L39.1576 17.152V18.304C39.1576 18.676 39.2416 19.072 39.4096 19.492C39.5896 19.912 39.8296 20.326 40.1296 20.734C40.4296 21.13 40.7836 21.496 41.1916 21.832C41.5996 22.156 42.0436 22.42 42.5236 22.624C43.0036 22.816 43.4956 22.912 43.9996 22.912H47.7076V25H44.7556C43.8196 25 42.9436 24.85 42.1276 24.55C41.3116 24.25 40.5736 23.854 39.9136 23.362C39.2536 22.858 38.6836 22.312 38.2036 21.724C37.7356 21.124 37.3756 20.53 37.1236 19.942C36.8716 19.342 36.7456 18.796 36.7456 18.304V17.278C37.2616 16.99 37.8076 16.75 38.3836 16.558C38.9716 16.366 39.5536 16.222 40.1296 16.126C40.7176 16.018 41.2576 15.964 41.7496 15.964C42.2536 15.964 42.7936 16.018 43.3696 16.126C43.9456 16.222 44.5216 16.366 45.0976 16.558C45.6856 16.75 46.2376 16.99 46.7536 17.278V18.304C46.7536 18.796 46.6276 19.342 46.3756 19.942C46.1236 20.53 45.7576 21.124 45.2776 21.724C44.8096 22.312 44.2456 22.858 43.5856 23.362C42.9256 23.854 42.1876 24.25 41.3716 24.55C40.5556 24.85 39.6796 25 38.7436 25H35.6836ZM35.6836 25C35.5396 25 35.4436 24.904 35.3956 24.712C35.3476 24.52 35.3236 24.268 35.3236 23.956C35.3236 23.632 35.3476 23.38 35.3956 23.2C35.4436 23.008 35.5396 22.912 35.6836 22.912V25ZM47.7076 25V22.912C47.8516 22.912 47.9476 23.008 47.9956 23.2C48.0436 23.38 48.0676 23.632 48.0676 23.956C48.0676 24.268 48.0436 24.52 47.9956 24.712C47.9476 24.904 47.8516 25 47.7076 25ZM49.741 25V12.274H52.153V25H49.741ZM47.707 25V22.912H49.741V25H47.707ZM47.707 25C47.563 25 47.467 24.904 47.419 24.712C47.371 24.52 47.347 24.268 47.347 23.956C47.347 23.632 47.371 23.38 47.419 23.2C47.467 23.008 47.563 22.912 47.707 22.912V25ZM55.0399 25V12.274H57.4339V25H55.0399ZM68.9224 29.788C67.9384 29.788 67.0504 29.602 66.2584 29.23C65.4664 28.87 64.8424 28.366 64.3864 27.718C63.9304 27.082 63.7024 26.356 63.7024 25.54C63.7024 25.288 63.7204 24.958 63.7564 24.55C63.8044 24.142 63.8584 23.692 63.9184 23.2C63.9904 22.708 64.0624 22.198 64.1344 21.67C64.2184 21.142 64.2964 20.644 64.3684 20.176L66.7444 20.518C66.6244 21.31 66.5164 22.036 66.4204 22.696C66.3244 23.356 66.2464 23.92 66.1864 24.388C66.1384 24.856 66.1144 25.216 66.1144 25.468C66.1144 25.948 66.2224 26.35 66.4384 26.674C66.6664 27.01 66.9904 27.262 67.4104 27.43C67.8304 27.61 68.3344 27.7 68.9224 27.7H73.1344C74.0104 27.7 74.6644 27.52 75.0964 27.16C75.5284 26.812 75.7444 26.308 75.7444 25.648V17.53L76.3384 18.052H74.0704C73.5424 18.052 73.1284 18.118 72.8284 18.25C72.5284 18.382 72.3184 18.628 72.1984 18.988C72.0784 19.336 72.0184 19.834 72.0184 20.482C72.0184 21.19 72.0784 21.718 72.1984 22.066C72.3184 22.402 72.5284 22.63 72.8284 22.75C73.1284 22.858 73.5424 22.912 74.0704 22.912H75.7444V25H74.0704C73.0504 25 72.2104 24.844 71.5504 24.532C70.8904 24.208 70.3984 23.71 70.0744 23.038C69.7624 22.366 69.6064 21.514 69.6064 20.482C69.6064 19.498 69.7624 18.67 70.0744 17.998C70.3984 17.326 70.8904 16.822 71.5504 16.486C72.2104 16.138 73.0504 15.964 74.0704 15.964H78.1384V25.648C78.1384 26.5 77.9164 27.232 77.4724 27.844C77.0404 28.468 76.4464 28.948 75.6904 29.284C74.9464 29.62 74.0944 29.788 73.1344 29.788H68.9224ZM71.7664 14.884V12.832H74.1784V14.884H71.7664ZM74.2324 14.884V12.832H76.6444V14.884H74.2324ZM83.7924 29.464C83.3484 29.464 82.8804 29.428 82.3884 29.356C81.9084 29.296 81.3924 29.212 80.8404 29.104L81.2004 27.178C81.8004 27.25 82.3104 27.304 82.7304 27.34C83.1504 27.376 83.5044 27.394 83.7924 27.394C84.6564 27.394 85.2804 27.238 85.6644 26.926C86.0484 26.614 86.2404 26.146 86.2404 25.522V17.62L86.8344 18.052H84.5844C84.0924 18.052 83.6964 18.112 83.3964 18.232C83.0964 18.34 82.8744 18.574 82.7304 18.934C82.5984 19.282 82.5324 19.816 82.5324 20.536C82.5324 21.22 82.5924 21.736 82.7124 22.084C82.8444 22.42 83.0604 22.642 83.3604 22.75C83.6604 22.858 84.0684 22.912 84.5844 22.912H86.2404V25H84.5844C83.5644 25 82.7244 24.838 82.0644 24.514C81.4044 24.19 80.9124 23.698 80.5884 23.038C80.2764 22.378 80.1204 21.544 80.1204 20.536C80.1204 19.528 80.2764 18.688 80.5884 18.016C80.9124 17.332 81.4044 16.822 82.0644 16.486C82.7244 16.138 83.5644 15.964 84.5844 15.964H88.6524V25.522C88.6524 26.338 88.4484 27.04 88.0404 27.628C87.6444 28.228 87.0804 28.684 86.3484 28.996C85.6284 29.308 84.7764 29.464 83.7924 29.464ZM90.5785 29.464C90.4225 29.464 90.2545 29.458 90.0745 29.446C89.8945 29.434 89.7085 29.416 89.5165 29.392L89.6065 27.34C89.7985 27.352 89.9785 27.364 90.1465 27.376C90.3265 27.388 90.4585 27.394 90.5425 27.394C91.0105 27.394 91.3825 27.208 91.6585 26.836C91.9465 26.464 92.0905 25.942 92.0905 25.27V15.964H94.5025V25.27C94.5025 26.086 94.3345 26.812 93.9985 27.448C93.6745 28.084 93.2185 28.576 92.6305 28.924C92.0425 29.284 91.3585 29.464 90.5785 29.464ZM99.7269 25V22.912H101.779V25H99.7269ZM97.3329 25V12.274H99.7269V25H97.3329ZM101.779 25V22.912C101.923 22.912 102.019 23.008 102.067 23.2C102.115 23.38 102.139 23.632 102.139 23.956C102.139 24.268 102.115 24.52 102.067 24.712C102.019 24.904 101.923 25 101.779 25ZM111.857 25V22.912H113.747V25H111.857ZM101.777 25V22.912H110.183L109.445 23.542V17.53L110.057 18.052H107.789C107.261 18.052 106.847 18.118 106.547 18.25C106.247 18.382 106.037 18.628 105.917 18.988C105.797 19.336 105.737 19.834 105.737 20.482C105.737 21.19 105.797 21.718 105.917 22.066C106.037 22.402 106.247 22.63 106.547 22.75C106.847 22.858 107.261 22.912 107.789 22.912V24.784C106.769 24.784 105.929 24.64 105.269 24.352C104.609 24.064 104.117 23.608 103.793 22.984C103.481 22.348 103.325 21.514 103.325 20.482C103.325 19.498 103.481 18.67 103.793 17.998C104.117 17.326 104.609 16.822 105.269 16.486C105.929 16.138 106.769 15.964 107.789 15.964H111.857V25H101.777ZM101.777 25C101.633 25 101.537 24.904 101.489 24.712C101.441 24.52 101.417 24.268 101.417 23.956C101.417 23.632 101.441 23.38 101.489 23.2C101.537 23.008 101.633 22.912 101.777 22.912V25ZM113.747 25V22.912C113.891 22.912 113.987 23.008 114.035 23.2C114.083 23.38 114.107 23.632 114.107 23.956C114.107 24.268 114.083 24.52 114.035 24.712C113.987 24.904 113.891 25 113.747 25ZM106.835 14.308V12.256H109.247V14.308H106.835ZM115.782 25V12.274H118.194V25H115.782ZM113.748 25V22.912H115.782V25H113.748ZM113.748 25C113.604 25 113.508 24.904 113.46 24.712C113.412 24.52 113.388 24.268 113.388 23.956C113.388 23.632 113.412 23.38 113.46 23.2C113.508 23.008 113.604 22.912 113.748 22.912V25ZM121.081 25V12.274H123.475V25H121.081ZM133.199 25V22.912H135.521V25H133.199ZM129.707 29.464C129.551 29.464 129.383 29.458 129.203 29.446C129.023 29.434 128.837 29.416 128.645 29.392L128.735 27.34C128.927 27.352 129.107 27.364 129.275 27.376C129.455 27.388 129.587 27.394 129.671 27.394C130.139 27.394 130.511 27.208 130.787 26.836C131.075 26.464 131.219 25.942 131.219 25.27V15.964H133.631V25.27C133.631 26.086 133.463 26.812 133.127 27.448C132.803 28.084 132.347 28.576 131.759 28.924C131.171 29.284 130.487 29.464 129.707 29.464ZM135.521 25V22.912C135.665 22.912 135.761 23.008 135.809 23.2C135.857 23.38 135.881 23.632 135.881 23.956C135.881 24.268 135.857 24.52 135.809 24.712C135.761 24.904 135.665 25 135.521 25ZM131.219 14.308V12.256H133.631V14.308H131.219ZM135.527 25V22.912H144.563L143.771 23.56V21.112C143.771 20.488 143.705 19.99 143.573 19.618C143.441 19.246 143.237 18.976 142.961 18.808C142.697 18.64 142.361 18.556 141.953 18.556H138.011L136.517 16.396L137.435 14.668C137.543 14.464 137.663 14.242 137.795 14.002C137.927 13.762 138.101 13.474 138.317 13.138C138.533 12.802 138.809 12.382 139.145 11.878L141.161 13.012C140.849 13.48 140.597 13.87 140.405 14.182C140.213 14.482 140.051 14.746 139.919 14.974C139.787 15.202 139.667 15.43 139.559 15.658L138.839 17.008L138.479 16.468H141.953C142.721 16.468 143.375 16.594 143.915 16.846C144.455 17.098 144.887 17.446 145.211 17.89C145.547 18.334 145.793 18.832 145.949 19.384C146.105 19.936 146.183 20.512 146.183 21.112V25H135.527ZM135.527 25C135.383 25 135.287 24.904 135.239 24.712C135.191 24.52 135.167 24.268 135.167 23.956C135.167 23.632 135.191 23.38 135.239 23.2C135.287 23.008 135.383 22.912 135.527 22.912V25ZM151.604 25V22.912H153.926V25H151.604ZM148.112 29.464C147.956 29.464 147.788 29.458 147.608 29.446C147.428 29.434 147.242 29.416 147.05 29.392L147.14 27.34C147.332 27.352 147.512 27.364 147.68 27.376C147.86 27.388 147.992 27.394 148.076 27.394C148.544 27.394 148.916 27.208 149.192 26.836C149.48 26.464 149.624 25.942 149.624 25.27V15.964H152.036V25.27C152.036 26.086 151.868 26.812 151.532 27.448C151.208 28.084 150.752 28.576 150.164 28.924C149.576 29.284 148.892 29.464 148.112 29.464ZM153.926 25V22.912C154.07 22.912 154.166 23.008 154.214 23.2C154.262 23.38 154.286 23.632 154.286 23.956C154.286 24.268 154.262 24.52 154.214 24.712C154.166 24.904 154.07 25 153.926 25ZM153.932 25V22.912H163.274L162.176 23.848V20.536C162.176 19.888 162.104 19.384 161.96 19.024C161.816 18.652 161.564 18.394 161.204 18.25C160.856 18.094 160.37 18.016 159.746 18.016C159.254 18.016 158.768 18.052 158.288 18.124C157.82 18.184 157.454 18.268 157.19 18.376L158.684 16.972C158.612 17.248 158.54 17.596 158.468 18.016C158.408 18.436 158.354 18.886 158.306 19.366C158.258 19.834 158.234 20.296 158.234 20.752C158.234 21.172 158.252 21.61 158.288 22.066C158.336 22.522 158.384 22.924 158.432 23.272C158.492 23.62 158.54 23.86 158.576 23.992L156.29 24.622C156.242 24.454 156.182 24.178 156.11 23.794C156.038 23.41 155.972 22.954 155.912 22.426C155.864 21.898 155.84 21.34 155.84 20.752C155.84 20.152 155.87 19.576 155.93 19.024C155.99 18.46 156.056 17.956 156.128 17.512C156.212 17.056 156.29 16.69 156.362 16.414C156.65 16.306 157.1 16.198 157.712 16.09C158.324 15.982 159.002 15.928 159.746 15.928C160.826 15.928 161.72 16.078 162.428 16.378C163.148 16.678 163.682 17.164 164.03 17.836C164.39 18.508 164.57 19.414 164.57 20.554V25H153.932ZM153.932 25C153.788 25 153.692 24.904 153.644 24.712C153.596 24.52 153.572 24.268 153.572 23.956C153.572 23.632 153.596 23.38 153.644 23.2C153.692 23.008 153.788 22.912 153.932 22.912V25Z" fill="#181B32"/>
<path d="M196.447 4.67965C196.447 2.91934 194.337 2.01758 193.065 3.23415L178.618 17.0484C178.223 17.4258 178 17.948 178 18.4939L178 30.3823C178 32.1426 180.11 33.0444 181.382 31.8278L195.829 18.0135C196.224 17.6362 196.447 17.1139 196.447 16.568L196.447 4.67965Z" fill="#00BCA8"/>
</svg>
