<svg width="213" height="300" viewBox="0 0 213 300" fill="none" xmlns="http://www.w3.org/2000/svg">
<path d="M107.675 271.994L89.4427 290.226L87.3214 288.105L81.8794 293.547L79.8875 286.113L76.9897 286.889L70.3162 261.983L73.214 261.207L66.5405 236.301L63.6427 237.077L56.9692 212.172L59.867 211.395L53.1934 186.489L50.2956 187.266L43.6221 162.36L46.5199 161.583L39.8464 136.677L36.9486 137.454L30.2751 112.548L33.1729 111.771L26.4994 86.8654L23.6016 87.6419L16.928 62.7359L19.8258 61.9595L13.1523 37.0535L10.2545 37.83L3.58099 12.9241L6.47877 12.1476L4.48688 4.71374L11.9207 6.70564L12.6972 3.80787L37.6031 10.4814L36.8267 13.3792L61.7326 20.0527L62.5091 17.1549L87.415 23.8284L86.6385 26.7262L111.544 33.3998L112.321 30.502L137.227 37.1755L136.45 40.0733L161.356 46.7468L162.133 43.849L187.039 50.5226L186.262 53.4203L211.168 60.0939L211.945 57.1961L236.851 63.8696L236.074 66.7674L260.98 73.4409L261.757 70.5431L286.662 77.2167L285.886 80.1144L293.32 82.1063L287.878 87.5483L289.999 89.6696L271.767 107.902L269.646 105.781L251.413 124.013L253.534 126.134L235.302 144.367L233.181 142.246L214.948 160.478L217.07 162.599L198.837 180.832L196.716 178.71L178.483 196.943L180.605 199.064L162.372 217.296L160.251 215.175L142.019 233.408L144.14 235.529L125.908 253.761L123.786 251.64L105.554 269.872L107.675 271.994Z" stroke="#00BCA8" stroke-width="6" stroke-dasharray="24 24"/>
</svg>
