<svg width="33" height="31" viewBox="0 0 33 31" fill="none" xmlns="http://www.w3.org/2000/svg">
<path d="M18.6988 7.68245V14.6398L24.4798 18.1081C24.771 18.283 24.9808 18.5664 25.063 18.896C25.1453 19.2255 25.0932 19.5743 24.9183 19.8655C24.7435 20.1566 24.4601 20.3664 24.1305 20.4487C23.8009 20.5309 23.4522 20.4789 23.161 20.304L16.759 16.4628C16.5695 16.349 16.4127 16.188 16.3039 15.9956C16.1951 15.8032 16.1379 15.5859 16.138 15.3648V7.68245C16.138 7.34286 16.2729 7.01719 16.513 6.77707C16.7531 6.53695 17.0788 6.40205 17.4184 6.40205C17.758 6.40205 18.0837 6.53695 18.3238 6.77707C18.5639 7.01719 18.6988 7.34286 18.6988 7.68245ZM17.4184 4.73928e-05C15.3986 -0.00498386 13.3978 0.390624 11.5318 1.16397C9.66591 1.93733 7.97188 3.07306 6.5478 4.50546C5.38423 5.68342 4.35031 6.81658 3.33399 8.00255V5.12165C3.33399 4.78206 3.19909 4.45639 2.95897 4.21627C2.71885 3.97615 2.39318 3.84125 2.05359 3.84125C1.71401 3.84125 1.38834 3.97615 1.14821 4.21627C0.908092 4.45639 0.773193 4.78206 0.773193 5.12165V11.5236C0.773193 11.8632 0.908092 12.1889 1.14821 12.429C1.38834 12.6691 1.71401 12.804 2.05359 12.804H8.45559C8.79518 12.804 9.12085 12.6691 9.36097 12.429C9.60109 12.1889 9.73599 11.8632 9.73599 11.5236C9.73599 11.1841 9.60109 10.8584 9.36097 10.6183C9.12085 10.3781 8.79518 10.2432 8.45559 10.2432H4.77444C5.9188 8.89563 7.05836 7.62643 8.35796 6.31082C10.1375 4.53131 12.402 3.31566 14.8684 2.81577C17.3349 2.31589 19.894 2.55393 22.2259 3.50016C24.5579 4.44639 26.5593 6.05884 27.9801 8.13604C29.4009 10.2132 30.178 12.6631 30.2144 15.1794C30.2508 17.6958 29.5448 20.1671 28.1848 22.2845C26.8247 24.4019 24.8707 26.0716 22.5671 27.0849C20.2635 28.0982 17.7124 28.4101 15.2325 27.9818C12.7526 27.5535 10.4539 26.4038 8.62365 24.6766C8.50132 24.561 8.35742 24.4706 8.20017 24.4106C8.04292 24.3506 7.87539 24.3222 7.70715 24.3269C7.53892 24.3317 7.37326 24.3695 7.21965 24.4383C7.06604 24.5071 6.92748 24.6054 6.81188 24.7278C6.69628 24.8501 6.60591 24.994 6.54592 25.1512C6.48593 25.3085 6.4575 25.476 6.46226 25.6443C6.46701 25.8125 6.50486 25.9782 6.57364 26.1318C6.64241 26.2854 6.74077 26.4239 6.8631 26.5395C8.68678 28.2605 10.904 29.509 13.3211 30.176C15.7383 30.8431 18.282 30.9084 20.7302 30.3663C23.1784 29.8242 25.4567 28.6911 27.3663 27.066C29.2759 25.4409 30.7588 23.3731 31.6854 21.0431C32.6121 18.7131 32.9545 16.1917 32.6826 13.699C32.4108 11.2063 31.533 8.81799 30.1258 6.74253C28.7187 4.66707 26.8249 2.96754 24.6099 1.79226C22.3949 0.616983 19.9259 0.00167947 17.4184 4.73928e-05Z" fill="#616161"/>
</svg>
