<svg width="73" height="89" viewBox="0 0 73 89" fill="none" xmlns="http://www.w3.org/2000/svg">
<path fill-rule="evenodd" clip-rule="evenodd" d="M44.5328 20.1528L26.6652 38.1368L5.74645 25.2637C3.00537 23.5766 3.56095 19.4143 6.64888 18.5182L56.0373 4.14961C58.8459 3.33694 61.4427 5.96964 60.6017 8.79083L45.9478 58.1199C45.03 61.2069 40.9138 61.7415 39.2501 58.9852L26.6652 38.1368" fill="url(#paint0_linear_4_402)"/>
<g opacity="0.5" filter="url(#filter0_f_4_402)">
<path fill-rule="evenodd" clip-rule="evenodd" d="M41.9714 24.1993L31.3158 34.9242L18.8407 27.2472C17.206 26.241 17.5373 23.7588 19.3788 23.2244L48.8323 14.6555C50.5072 14.1709 52.0559 15.7409 51.5543 17.4234L42.8153 46.8415C42.268 48.6824 39.8132 49.0012 38.821 47.3574L31.3158 34.9242" fill="#FFAE8D"/>
</g>
<g filter="url(#filter1_b_4_402)">
<mask id="path-3-outside-1_4_402" maskUnits="userSpaceOnUse" x="0.5" y="15.1099" width="73" height="73" fill="black">
<rect fill="white" x="0.5" y="15.1099" width="73" height="73"/>
<path fill-rule="evenodd" clip-rule="evenodd" d="M51.4932 37.0219L29.4673 59.1912L3.68028 43.3223C0.301284 41.2425 0.986164 36.1115 4.79274 35.0069L65.6752 17.2943C69.1374 16.2925 72.3386 19.5379 71.3018 23.0156L53.2376 83.825C52.1062 87.6303 47.0321 88.2893 44.9812 84.8916L29.4673 59.1912"/>
</mask>
<path fill-rule="evenodd" clip-rule="evenodd" d="M51.4932 37.0219L29.4673 59.1912L3.68028 43.3223C0.301284 41.2425 0.986164 36.1115 4.79274 35.0069L65.6752 17.2943C69.1374 16.2925 72.3386 19.5379 71.3018 23.0156L53.2376 83.825C52.1062 87.6303 47.0321 88.2893 44.9812 84.8916L29.4673 59.1912" fill="#FFD1BF" fill-opacity="0.35"/>
<path d="M52.2026 37.7267C52.5919 37.3349 52.5898 36.7018 52.198 36.3125C51.8063 35.9233 51.1731 35.9253 50.7838 36.3171L52.2026 37.7267ZM29.4673 59.1912L28.9432 60.0429C29.3386 60.2862 29.8495 60.2254 30.1767 59.896L29.4673 59.1912ZM3.68028 43.3223L3.1561 44.1739L3.15618 44.1739L3.68028 43.3223ZM4.79274 35.0069L5.07143 35.9672L5.07208 35.9671L4.79274 35.0069ZM65.6752 17.2943L65.3972 16.3337L65.3958 16.3341L65.6752 17.2943ZM71.3018 23.0156L70.3435 22.73L70.3432 22.7309L71.3018 23.0156ZM53.2376 83.825L54.1961 84.11L54.1962 84.1098L53.2376 83.825ZM44.9812 84.8916L45.8373 84.3748L45.8373 84.3748L44.9812 84.8916ZM30.3235 58.6744C30.038 58.2016 29.4234 58.0497 28.9506 58.3351C28.4777 58.6205 28.3258 59.2352 28.6112 59.708L30.3235 58.6744ZM50.7838 36.3171L28.7579 58.4864L30.1767 59.896L52.2026 37.7267L50.7838 36.3171ZM29.9914 58.3395L4.20437 42.4706L3.15618 44.1739L28.9432 60.0429L29.9914 58.3395ZM4.20445 42.4706C1.55932 40.8425 2.10366 36.8285 5.07143 35.9672L4.51404 34.0465C-0.131333 35.3946 -0.956753 41.6424 3.1561 44.1739L4.20445 42.4706ZM5.07208 35.9671L65.9545 18.2545L65.3958 16.3341L4.51339 34.0467L5.07208 35.9671ZM65.9531 18.2549C68.6453 17.4759 71.1572 20.0003 70.3435 22.73L72.2601 23.3013C73.5199 19.0754 69.6295 15.1091 65.3972 16.3337L65.9531 18.2549ZM70.3432 22.7309L52.279 83.5402L54.1962 84.1098L72.2604 23.3004L70.3432 22.7309ZM52.2791 83.54C51.3936 86.5182 47.4365 87.0242 45.8373 84.3748L44.1251 85.4083C46.6277 89.5545 52.8188 88.7425 54.1961 84.11L52.2791 83.54ZM45.8373 84.3748L30.3235 58.6744L28.6112 59.708L44.1251 85.4084L45.8373 84.3748Z" fill="url(#paint1_linear_4_402)" mask="url(#path-3-outside-1_4_402)"/>
</g>
<g filter="url(#filter2_bd_4_402)">
<rect width="23.9508" height="4.12944" rx="2.06472" transform="matrix(0.707167 -0.707047 0.707167 0.707047 33.6091 52.1088)" fill="url(#paint2_linear_4_402)"/>
<rect x="0.282867" width="23.5508" height="3.72944" rx="1.86472" transform="matrix(0.707167 -0.707047 0.707167 0.707047 33.692 52.3088)" stroke="url(#paint3_linear_4_402)" stroke-width="0.4"/>
</g>
<defs>
<filter id="filter0_f_4_402" x="3.78589" y="0.566284" width="61.8643" height="61.8586" filterUnits="userSpaceOnUse" color-interpolation-filters="sRGB">
<feFlood flood-opacity="0" result="BackgroundImageFix"/>
<feBlend mode="normal" in="SourceGraphic" in2="BackgroundImageFix" result="shape"/>
<feGaussianBlur stdDeviation="7" result="effect1_foregroundBlur_4_402"/>
</filter>
<filter id="filter1_b_4_402" x="-23.5" y="-7.89185" width="120.001" height="119.99" filterUnits="userSpaceOnUse" color-interpolation-filters="sRGB">
<feFlood flood-opacity="0" result="BackgroundImageFix"/>
<feGaussianBlur in="BackgroundImageFix" stdDeviation="12"/>
<feComposite in2="SourceAlpha" operator="in" result="effect1_backgroundBlur_4_402"/>
<feBlend mode="normal" in="SourceGraphic" in2="effect1_backgroundBlur_4_402" result="shape"/>
</filter>
<filter id="filter2_bd_4_402" x="19.4644" y="21.0296" width="48.147" height="48.1437" filterUnits="userSpaceOnUse" color-interpolation-filters="sRGB">
<feFlood flood-opacity="0" result="BackgroundImageFix"/>
<feGaussianBlur in="BackgroundImageFix" stdDeviation="7.5"/>
<feComposite in2="SourceAlpha" operator="in" result="effect1_backgroundBlur_4_402"/>
<feColorMatrix in="SourceAlpha" type="matrix" values="0 0 0 0 0 0 0 0 0 0 0 0 0 0 0 0 0 0 127 0" result="hardAlpha"/>
<feOffset dx="5" dy="5"/>
<feGaussianBlur stdDeviation="5"/>
<feColorMatrix type="matrix" values="0 0 0 0 1 0 0 0 0 0.580392 0 0 0 0 0.247059 0 0 0 0.5 0"/>
<feBlend mode="normal" in2="effect1_backgroundBlur_4_402" result="effect2_dropShadow_4_402"/>
<feBlend mode="normal" in="SourceGraphic" in2="effect2_dropShadow_4_402" result="shape"/>
</filter>
<linearGradient id="paint0_linear_4_402" x1="32.3701" y1="4" x2="32.3701" y2="60.775" gradientUnits="userSpaceOnUse">
<stop stop-color="#FFF5F1"/>
<stop offset="1" stop-color="#FF8F63"/>
</linearGradient>
<linearGradient id="paint1_linear_4_402" x1="12.6429" y1="25.2636" x2="57.2863" y2="80.5649" gradientUnits="userSpaceOnUse">
<stop stop-color="white" stop-opacity="0.25"/>
<stop offset="1" stop-color="white" stop-opacity="0"/>
</linearGradient>
<linearGradient id="paint2_linear_4_402" x1="22.2527" y1="0.745695" x2="-3.53247" y2="5.62182" gradientUnits="userSpaceOnUse">
<stop stop-color="white"/>
<stop offset="1" stop-color="white" stop-opacity="0.2"/>
</linearGradient>
<linearGradient id="paint3_linear_4_402" x1="3.81257" y1="0.481085" x2="4.54855" y2="5.76793" gradientUnits="userSpaceOnUse">
<stop stop-color="white" stop-opacity="0.25"/>
<stop offset="1" stop-color="white" stop-opacity="0"/>
</linearGradient>
</defs>
</svg>
