<svg width="88" height="87" viewBox="0 0 88 87" fill="none" xmlns="http://www.w3.org/2000/svg">
<g filter="url(#filter0_b_4_407)">
<path d="M73.2304 38.8595C73.2304 57.5601 58.0689 72.7189 39.3652 72.7189C20.6614 72.7189 5.5 57.5601 5.5 38.8595C5.5 20.1623 20.6614 5 39.3652 5C58.0689 5 73.2304 20.1623 73.2304 38.8595Z" fill="url(#paint0_linear_4_407)"/>
</g>
<g opacity="0.5" filter="url(#filter1_f_4_407)">
<path d="M61.0665 38.8276C61.0665 50.7349 51.4126 60.3871 39.5033 60.3871C27.594 60.3871 17.9402 50.7349 17.9402 38.8276C17.9402 26.9225 27.594 17.2681 39.5033 17.2681C51.4126 17.2681 61.0665 26.9225 61.0665 38.8276Z" fill="#ACCDFF"/>
</g>
<g filter="url(#filter2_b_4_407)">
<path d="M86.4999 52.1269C86.4999 70.8274 71.3385 85.9863 52.6347 85.9863C33.931 85.9863 18.7695 70.8274 18.7695 52.1269C18.7695 33.4297 33.931 18.2674 52.6347 18.2674C71.3385 18.2674 86.4999 33.4297 86.4999 52.1269Z" fill="#ACCDFF" fill-opacity="0.35"/>
<path d="M52.6347 86.4863C71.6145 86.4863 86.9999 71.1037 86.9999 52.1269C86.9999 33.1535 71.6146 17.7674 52.6347 17.7674C33.6549 17.7674 18.2695 33.1535 18.2695 52.1269C18.2695 71.1037 33.6549 86.4863 52.6347 86.4863Z" stroke="url(#paint1_linear_4_407)" stroke-linecap="round" stroke-linejoin="round"/>
</g>
<g filter="url(#filter3_bd_4_407)">
<path d="M66.1812 52.1437C66.1812 52.9995 65.9118 53.8585 65.3731 54.5464C65.2721 54.6814 64.8006 55.2376 64.4302 55.5996L64.2282 55.7971C61.3997 58.7955 54.3621 63.3046 50.7928 64.7495C50.7928 64.7824 48.6714 65.6415 47.6612 65.6711H47.5265C45.9776 65.6711 44.5296 64.8186 43.7888 63.4363C43.3848 62.676 43.0144 60.4708 42.9807 60.4412C42.6776 58.4631 42.4756 55.4351 42.4756 52.1108C42.4756 48.6253 42.6776 45.4624 43.048 43.5205C43.048 43.4876 43.4184 41.7103 43.6541 41.1178C44.0245 40.2654 44.698 39.538 45.5398 39.0772C46.2133 38.7514 46.9204 38.5835 47.6612 38.5835C48.4357 38.6197 49.8836 39.1101 50.456 39.3405C54.2274 40.7887 61.4334 45.5282 64.1945 48.4245C64.6659 48.8853 65.171 49.4482 65.3057 49.5765C65.8782 50.3006 66.1812 51.1893 66.1812 52.1437Z" fill="url(#paint2_linear_4_407)"/>
<path d="M65.2156 54.4231L65.2156 54.4231L65.213 54.4266C65.1183 54.553 64.6537 55.1015 64.2904 55.4566L64.0884 55.6541L64.0883 55.654L64.0827 55.6599C62.6848 57.1418 60.234 59.0084 57.6784 60.6888C55.1237 62.3685 52.4846 63.8489 50.7177 64.5641L50.5928 64.6147V64.6259C50.5375 64.6499 50.4625 64.6811 50.3714 64.7175C50.1599 64.8018 49.8664 64.912 49.5416 65.0221C48.8842 65.2449 48.1296 65.4565 47.6582 65.4711H47.5265C46.0506 65.4711 44.6709 64.6586 43.9652 63.3421C43.7781 62.9898 43.5896 62.2764 43.4409 61.6205C43.3677 61.2977 43.306 60.9973 43.2602 60.7745L43.26 60.7734C43.2374 60.6631 43.2183 60.5704 43.2039 60.5044C43.1967 60.4716 43.1901 60.443 43.1845 60.4211C43.1818 60.411 43.1786 60.3992 43.1749 60.3879C42.8758 58.4227 42.6756 55.4161 42.6756 52.1108C42.6756 48.6291 42.8776 45.4811 43.2445 43.558L43.248 43.5394V43.5359L43.2489 43.531C43.2514 43.5174 43.2553 43.4974 43.2605 43.4713C43.2709 43.4194 43.2861 43.3458 43.3052 43.2561C43.3434 43.0767 43.3967 42.8343 43.4574 42.5745C43.5799 42.0505 43.7276 41.4754 43.8388 41.1946C44.1905 40.3872 44.83 39.695 45.6314 39.255C46.276 38.9439 46.9504 38.7842 47.6565 38.7835C48.0177 38.8012 48.5511 38.9261 49.078 39.0811C49.6025 39.2353 50.1015 39.4134 50.3814 39.526L50.3814 39.5261L50.3843 39.5272C52.2497 40.2435 54.9798 41.781 57.5939 43.5064C60.2084 45.2319 62.685 47.131 64.0498 48.5626L64.0497 48.5626L64.0547 48.5676C64.2874 48.795 64.5292 49.0484 64.7309 49.2624C64.7782 49.3126 64.8238 49.3611 64.8667 49.4068C64.9946 49.543 65.0991 49.6543 65.157 49.7109C65.6952 50.3965 65.9812 51.2372 65.9812 52.1437C65.9812 52.9586 65.7246 53.7733 65.2156 54.4231Z" stroke="url(#paint3_linear_4_407)" stroke-width="0.4"/>
</g>
<defs>
<filter id="filter0_b_4_407" x="-7.5" y="-8" width="93.7305" height="93.7189" filterUnits="userSpaceOnUse" color-interpolation-filters="sRGB">
<feFlood flood-opacity="0" result="BackgroundImageFix"/>
<feGaussianBlur in="BackgroundImageFix" stdDeviation="6.5"/>
<feComposite in2="SourceAlpha" operator="in" result="effect1_backgroundBlur_4_407"/>
<feBlend mode="normal" in="SourceGraphic" in2="effect1_backgroundBlur_4_407" result="shape"/>
</filter>
<filter id="filter1_f_4_407" x="0.940186" y="0.268127" width="77.1262" height="77.119" filterUnits="userSpaceOnUse" color-interpolation-filters="sRGB">
<feFlood flood-opacity="0" result="BackgroundImageFix"/>
<feBlend mode="normal" in="SourceGraphic" in2="BackgroundImageFix" result="shape"/>
<feGaussianBlur stdDeviation="8.5" result="effect1_foregroundBlur_4_407"/>
</filter>
<filter id="filter2_b_4_407" x="-6.23047" y="-6.7326" width="117.73" height="117.719" filterUnits="userSpaceOnUse" color-interpolation-filters="sRGB">
<feFlood flood-opacity="0" result="BackgroundImageFix"/>
<feGaussianBlur in="BackgroundImageFix" stdDeviation="12"/>
<feComposite in2="SourceAlpha" operator="in" result="effect1_backgroundBlur_4_407"/>
<feBlend mode="normal" in="SourceGraphic" in2="effect1_backgroundBlur_4_407" result="shape"/>
</filter>
<filter id="filter3_bd_4_407" x="27.4756" y="23.5835" width="53.7056" height="57.0876" filterUnits="userSpaceOnUse" color-interpolation-filters="sRGB">
<feFlood flood-opacity="0" result="BackgroundImageFix"/>
<feGaussianBlur in="BackgroundImageFix" stdDeviation="7.5"/>
<feComposite in2="SourceAlpha" operator="in" result="effect1_backgroundBlur_4_407"/>
<feColorMatrix in="SourceAlpha" type="matrix" values="0 0 0 0 0 0 0 0 0 0 0 0 0 0 0 0 0 0 127 0" result="hardAlpha"/>
<feOffset dx="5" dy="5"/>
<feGaussianBlur stdDeviation="5"/>
<feColorMatrix type="matrix" values="0 0 0 0 0.67451 0 0 0 0 0.803922 0 0 0 0 1 0 0 0 0.5 0"/>
<feBlend mode="normal" in2="effect1_backgroundBlur_4_407" result="effect2_dropShadow_4_407"/>
<feBlend mode="normal" in="SourceGraphic" in2="effect2_dropShadow_4_407" result="shape"/>
</filter>
<linearGradient id="paint0_linear_4_407" x1="44.3515" y1="43.3942" x2="-15.1587" y2="72.3343" gradientUnits="userSpaceOnUse">
<stop stop-color="#ACCDFF"/>
<stop offset="1" stop-color="#8FBCFF"/>
</linearGradient>
<linearGradient id="paint1_linear_4_407" x1="29.5511" y1="26.1567" x2="72.747" y2="79.665" gradientUnits="userSpaceOnUse">
<stop stop-color="white" stop-opacity="0.25"/>
<stop offset="1" stop-color="white" stop-opacity="0"/>
</linearGradient>
<linearGradient id="paint2_linear_4_407" x1="64.5005" y1="43.475" x2="38.0881" y2="44.2286" gradientUnits="userSpaceOnUse">
<stop stop-color="white"/>
<stop offset="1" stop-color="white" stop-opacity="0.2"/>
</linearGradient>
<linearGradient id="paint3_linear_4_407" x1="46.2491" y1="41.7392" x2="63.8678" y2="60.836" gradientUnits="userSpaceOnUse">
<stop stop-color="white" stop-opacity="0.25"/>
<stop offset="1" stop-color="white" stop-opacity="0"/>
</linearGradient>
</defs>
</svg>
