<svg width="102" height="98" viewBox="0 0 102 98" fill="none" xmlns="http://www.w3.org/2000/svg">
<path d="M101.047 91.1875C93.6697 78.4339 82.3014 69.2889 69.0344 64.9537C75.5969 61.0471 80.6955 55.0942 83.5473 48.0093C86.3991 40.9244 86.8464 33.0993 84.8204 25.7356C82.7945 18.3719 78.4074 11.8769 72.3329 7.24785C66.2583 2.61883 58.8321 0.111816 51.1949 0.111816C43.5576 0.111816 36.1314 2.61883 30.0569 7.24785C23.9823 11.8769 19.5952 18.3719 17.5693 25.7356C15.5433 33.0993 15.9906 40.9244 18.8424 48.0093C21.6942 55.0942 26.7929 61.0471 33.3553 64.9537C20.0883 69.2841 8.72001 78.4291 1.34298 91.1875C1.07245 91.6286 0.89301 92.1194 0.815247 92.631C0.737483 93.1426 0.762971 93.6646 0.890206 94.1662C1.01744 94.6677 1.24385 95.1387 1.55606 95.5514C1.86828 95.9641 2.25999 96.31 2.70807 96.5688C3.15615 96.8276 3.65153 96.9941 4.16499 97.0583C4.67844 97.1226 5.19956 97.0834 5.69761 96.943C6.19566 96.8026 6.66055 96.5639 7.06484 96.2409C7.46913 95.9179 7.80464 95.5172 8.05157 95.0625C17.1772 79.2912 33.3069 69.875 51.1949 69.875C69.0828 69.875 85.2125 79.2912 94.3381 95.0625C94.5851 95.5172 94.9206 95.9179 95.3249 96.2409C95.7292 96.5639 96.194 96.8026 96.6921 96.943C97.1901 97.0834 97.7113 97.1226 98.2247 97.0583C98.7382 96.9941 99.2336 96.8276 99.6816 96.5688C100.13 96.31 100.521 95.9641 100.834 95.5514C101.146 95.1387 101.372 94.6677 101.499 94.1662C101.627 93.6646 101.652 93.1426 101.574 92.631C101.497 92.1194 101.317 91.6286 101.047 91.1875ZM24.0699 35C24.0699 29.6352 25.6607 24.3908 28.6412 19.9302C31.6218 15.4695 35.8581 11.9928 40.8146 9.93976C45.771 7.88673 51.2249 7.34957 56.4867 8.39619C61.7484 9.44282 66.5816 12.0262 70.3751 15.8197C74.1686 19.6132 76.752 24.4464 77.7987 29.7082C78.8453 34.9699 78.3081 40.4238 76.2551 45.3803C74.2021 50.3367 70.7254 54.5731 66.2647 57.5536C61.804 60.5341 56.5597 62.125 51.1949 62.125C44.0032 62.1173 37.1083 59.257 32.0231 54.1718C26.9378 49.0865 24.0775 42.1916 24.0699 35Z" fill="#B3355C"/>
</svg>
